<?xml version="1.0" encoding="UTF-8" standalone="no"?>
<svg
   xmlns:dc="http://purl.org/dc/elements/1.1/"
   xmlns:cc="http://creativecommons.org/ns#"
   xmlns:rdf="http://www.w3.org/1999/02/22-rdf-syntax-ns#"
   xmlns:svg="http://www.w3.org/2000/svg"
   xmlns="http://www.w3.org/2000/svg"
   xmlns:xlink="http://www.w3.org/1999/xlink"
   xmlns:sodipodi="http://sodipodi.sourceforge.net/DTD/sodipodi-0.dtd"
   xmlns:inkscape="http://www.inkscape.org/namespaces/inkscape"
   width="600"
   height="600"
   viewBox="0 0 67.5 67.5"
   id="svg3418"
   version="1.1"
   inkscape:version="0.91 r13725"
   sodipodi:docname="puntland.svg">
  <metadata
     id="metadata3444">
    <rdf:RDF>
      <cc:Work
         rdf:about="">
        <dc:format>image/svg+xml</dc:format>
        <dc:type
           rdf:resource="http://purl.org/dc/dcmitype/StillImage" />
        <dc:title></dc:title>
      </cc:Work>
    </rdf:RDF>
  </metadata>
  <defs
     id="defs3442" />
  <sodipodi:namedview
     pagecolor="#ffffff"
     bordercolor="#666666"
     borderopacity="1"
     objecttolerance="10"
     gridtolerance="10"
     guidetolerance="10"
     inkscape:pageopacity="0"
     inkscape:pageshadow="2"
     inkscape:window-width="3070"
     inkscape:window-height="1752"
     id="namedview3440"
     showgrid="false"
     inkscape:zoom="0.975"
     inkscape:cx="834.69499"
     inkscape:cy="84.631678"
     inkscape:window-x="130"
     inkscape:window-y="48"
     inkscape:window-maximized="1"
     inkscape:current-layer="svg3418" />
  <rect
     width="67.5"
     height="67.5"
     id="rect3420"
     x="-1.6093253e-06"
     y="-1.6093253e-06"
     style="fill:#00a330" />
  <rect
     width="67.5"
     height="44.999996"
     id="rect3422"
     x="-1.6093253e-06"
     y="-1.6093253e-06"
     style="fill:#ffffff" />
  <rect
     width="67.5"
     height="22.499998"
     id="rect3424"
     x="-1.6093253e-06"
     y="-1.6093253e-06"
     style="fill:#4189dd" />
  <g
     transform="matrix(7.4999996,0,0,7.4999996,33.750002,11.249999)"
     id="g3426">
    <g
       id="t">
      <polygon
         id="w"
         points="0,0 0,1 0.5,1 "
         transform="matrix(0.95105652,0.30901699,-0.30901699,0.95105652,0,-1)"
         style="fill:#ffffff" />
      <use
         xlink:href="#w"
         transform="scale(-1,1)"
         id="use3430"
         x="0"
         y="0"
         width="100%"
         height="100%" />
    </g>
    <use
       xlink:href="#t"
       transform="matrix(0.30901699,0.95105652,-0.95105652,0.30901699,0,0)"
       id="use3432"
       x="0"
       y="0"
       width="100%"
       height="100%" />
    <use
       xlink:href="#t"
       transform="matrix(0.30901699,-0.95105652,0.95105652,0.30901699,0,0)"
       id="use3434"
       x="0"
       y="0"
       width="100%"
       height="100%" />
    <use
       xlink:href="#t"
       transform="matrix(-0.80901699,0.58778525,-0.58778525,-0.80901699,0,0)"
       id="use3436"
       x="0"
       y="0"
       width="100%"
       height="100%" />
    <use
       xlink:href="#t"
       transform="matrix(-0.80901699,-0.58778525,0.58778525,-0.80901699,0,0)"
       id="use3438"
       x="0"
       y="0"
       width="100%"
       height="100%" />
  </g>
</svg>
