<?xml version="1.0" encoding="utf-8"?>
<!-- Generator: Adobe Illustrator 16.0.4, SVG Export Plug-In . SVG Version: 6.00 Build 0)  -->
<!DOCTYPE svg PUBLIC "-//W3C//DTD SVG 1.1//EN" "http://www.w3.org/Graphics/SVG/1.1/DTD/svg11.dtd">
<svg version="1.1" id="Layer_1" xmlns="http://www.w3.org/2000/svg" xmlns:xlink="http://www.w3.org/1999/xlink" x="0px" y="0px"
	 width="1806px" height="554px" viewBox="0 0 1806 554" enable-background="new 0 0 1806 554" xml:space="preserve">
<g>
	<path fill="#0098CB" d="M337.25,12.733h8.252c5.6,1.021,10.427,5.285,11.553,10.962c2.786,12.879-1.221,25.806-3.529,38.418
		c-1.088,7.976-0.439,16.047-0.83,24.061c-0.792,13.346-0.467,26.723-0.974,40.069c-1.03,14.387-0.028,28.859-1.346,43.218
		c-6.697,1.24-13.175,3.434-19.901,4.512c-0.458-14.968-0.486-29.937-1.145-44.887c0.038-20.035-1.059-40.031-1.192-60.057
		c-0.048-6.535-2.155-12.812-3.062-19.243c-1.432-9.349-2.662-19.338,1.059-28.334C327.958,16.778,332.499,13.821,337.25,12.733z"/>
	<path fill="#0098CB" d="M136.587,92.461c13.366-14.081,30.567-25.425,49.886-28.964c-5.524,4.551-10.494,9.798-14.463,15.771
		c-8.004,11.744-12.975,25.777-23.717,35.509c-12.059,10.714-26.828,18.012-38.162,29.613
		C113.558,124.985,123.537,107.068,136.587,92.461z"/>
	<path fill="#0098CB" d="M494.818,63.555c12.631,2.108,24.308,8.138,34.669,15.503c15.684,11.477,28.058,27.362,35.547,45.288
		c2.642,6.449,5.256,13.07,5.98,20.063c-8.061-8.052-17.516-14.396-26.846-20.836c-7.012-4.885-13.91-10.256-18.833-17.344
		c-6.325-8.854-10.503-19.023-16.791-27.906C504.72,72.751,499.94,67.914,494.818,63.555z"/>
	<path fill="#0098CB" d="M359.64,78.113c3.454,0.295,6.831-0.191,10.047-1.479c4.482-0.057,9.244-0.258,13.45,1.622
		c-0.706,0.658-1.239,1.622-2.231,1.851c-6.975,0.725-13.958,0.115-20.903-0.468C359.908,79.258,359.736,78.495,359.64,78.113z"/>
	<path fill="#0098CB" d="M358.896,86.537c8.797-0.334,17.411,2.042,25.635,4.942c13.5,5.075,26.397,13.633,33.506,26.513
		c7.765,12.774,7.794,28.945,3.139,42.797c-3.939,11.63-13.089,20.808-23.697,26.608c-15.094,8.376-32.209,11.772-48.779,15.923
		c-8.863,2.013-17.688,4.455-25.959,8.281c-5.324,2.718-10.601,6.506-12.909,12.23c-2.929,6.573-1.517,14.692,3.282,20.015
		c3.357,3.664,7.661,6.306,12.136,8.405c0.248,8.434,0.534,16.886,0.209,25.32c-13.681-4.293-27.934-9.855-37.284-21.265
		c-8.987-11.21-10.131-26.99-6.163-40.403c3.597-12.45,14.215-21.513,25.654-26.751c18.794-8.72,39.64-11.143,59.178-17.621
		c8.081-2.719,16.268-6.278,22.239-12.556c6.602-7.164,8.51-18.107,5.095-27.18c-2.204-6.497-7.212-11.754-13.089-15.14
		c-6.783-4.131-14.635-6.03-22.42-7.185C358.868,101.831,359.058,94.179,358.896,86.537z"/>
	<path fill="#0098CB" d="M565.32,97.022c7.747,5.972,15.131,12.708,20.34,21.075c9.835,15.026,13.7,33.305,13.404,51.088
		c0.248,14.215-2.252,28.277-2.72,42.464c-6.812-15.265-17.21-28.955-30.396-39.268c-7.756-6.344-16.275-11.668-23.994-18.06
		c-5.953-5.267-11.62-11.029-15.693-17.917c-3.845-6.096-6.478-12.841-8.93-19.586c0.019-0.182,0.077-0.535,0.095-0.716
		c5.447,7.126,13.595,11.4,21.104,15.999c13.479,7.89,26.817,16.686,36.769,28.936c3.578,4.579,7.366,9.158,9.475,14.644
		c-2.252-10.961-4.142-22-5.354-33.133C577.302,126.816,575.174,110.073,565.32,97.022z"/>
	<path fill="#0098CB" d="M84.84,143.369c4.036-18.251,15.093-34.508,29.995-45.68c-3.205,6.135-6.611,12.231-8.414,18.957
		c-5.124,19.405-5.152,39.716-10.18,59.141c2.652-6.307,7.203-11.525,11.419-16.82c9.999-11.277,22.668-19.663,35.586-27.228
		c7.193-4.599,15.531-8.434,20.225-15.904c-1.698,9.206-6.334,17.659-11.706,25.234c-9.015,12.413-22.353,20.378-34.345,29.547
		c-13.996,10.685-25.482,24.785-32.456,40.995C83.64,188.933,79.154,165.836,84.84,143.369z"/>
	<path fill="#0098CB" d="M1032.279,99.998c8.387-0.066,16.781,0.01,25.178-0.057c0.783,11.601,0.154,23.25,0.354,34.879
		c0.086,41.873-0.172,83.745,0.145,125.608c-3.873,1.069-7.9,0.525-11.85,0.62c-4.531-0.066-9.072,0.182-13.586-0.105
		c-0.715-10.818-0.143-21.704-0.324-32.551C1032.242,185.594,1032.09,142.796,1032.279,99.998z"/>
	<path fill="#0098CB" d="M1564.572,100.008c8.549-0.01,17.105-0.172,25.652,0.086c-0.16,53.674-0.035,107.338-0.047,161.012
		c-8.52,0.01-17.039-0.152-25.539,0.029C1564.506,207.422,1564.631,153.71,1564.572,100.008z"/>
	<path fill="#0098CB" d="M1680.994,100.027c8.547-0.067,17.096-0.153,25.654,0.057c-0.078,21.447-0.211,42.903,0.104,64.349
		c2.994-4.36,6.258-8.691,10.693-11.696c5.381-3.625,12.117-4.398,18.461-4.093c8.09,0.277,16.4,3.912,21.057,10.742
		c5.16,7.642,6.975,17.001,7.525,26.064v75.626c-8.471-0.01-16.951-0.095-25.414,0.096c-0.506-22.677,0.037-45.384-0.277-68.07
		c-0.381-6.678-0.516-14.339-5.521-19.415c-6.66-5.524-17.965-3.196-22.355,4.14c-4.016,6.183-4.35,13.824-4.35,20.97
		c0.066,20.569-0.125,41.147,0.094,61.726c-8.498,1.116-17.096,0.257-25.635,0.572
		C1680.965,207.403,1681.051,153.72,1680.994,100.027z"/>
	<path fill="#0098CB" d="M433.283,107.029c1.067-0.782,2.136-1.555,3.205-2.337c2.337,1.278,4.465,2.9,6.335,4.799
		c-0.145,1.288-0.259,2.585-0.468,3.873c-1.24,0.201-2.062-0.896-2.986-1.488c-1.891-1.545-4.036-2.729-6.259-3.721
		C433.158,107.869,433.245,107.306,433.283,107.029z"/>
	<path fill="#0098CB" d="M692.187,111.256c8.281-0.562,16.677-0.744,24.938,0.115c2.929,19.978,6.812,39.812,10.141,59.732
		c3.188,18.499,6.421,36.988,9.655,55.477c7.213-38.457,14.292-76.942,21.523-115.409c10.713-0.468,21.503-0.553,32.217,0.066
		c6.926,38.419,14.234,76.771,21.064,115.219c4.188-20.445,7.365-41.081,11.344-61.563c3.206-17.908,6.449-35.805,9.665-53.722
		c8.032-0.401,16.133-0.64,24.155,0.076c-8.854,43.104-17.001,86.36-25.587,129.52c-1.411,6.783-2.385,13.661-4.188,20.359
		c-10.418-0.162-20.845-0.029-31.265-0.058c-6.152-35.08-12.2-70.169-18.277-105.268c-0.926-5.733-1.861-11.468-3.206-17.125
		c-6.936,37.828-13.833,75.655-20.797,113.473c-0.497,3.005-1.05,6.02-1.861,8.958c-10.198-0.066-20.396-0.152-30.596,0.067
		c-3.663-15.885-6.191-32.027-9.482-47.988C705.228,179.193,698.388,145.286,692.187,111.256z"/>
	<path fill="#0098CB" d="M1246.805,111.084c8.672-0.333,17.393-0.41,26.062,0.096c-0.066,20.14,0.029,40.279-0.057,60.419
		c14.016,0.4,28.037,0.105,42.062,0.181c0.02-20.14,0.115-40.289-0.047-60.428c8.842-0.868,17.793-0.562,26.664-0.162
		c-0.191,49.981,0.152,99.973-0.172,149.955c-8.615-0.115-17.23-0.201-25.834,0.038c-0.975-3.883-0.516-7.89-0.574-11.84
		c-0.047-18.041,0.059-36.081-0.057-54.122c-14.016-0.038-28.029-0.191-42.043,0.095c0.008,21.934,0.15,43.876-0.078,65.81
		c-8.594-0.114-17.201-0.096-25.787-0.029c-0.4-23.307-0.066-46.614-0.18-69.921
		C1246.795,164.472,1246.719,137.778,1246.805,111.084z"/>
	<path fill="#0098CB" d="M321.737,89.333c-5.629,2.003-11.307,3.94-16.6,6.754c-6.154,3.463-13.518,3.559-19.759,6.821
		c-9.903,4.484-16.676,13.433-22.696,22.133c-3.654,5.095-3.482,11.716-6.344,17.164c-1.078,2.175-2.214,4.407-2.366,6.869
		c0,8.452-8.176,14.93-16.199,15.388c3.167,1.04,6.477,0.181,9.578-0.658c-0.706,2.633-1.316,5.295-1.555,8.014
		c2.929-5.619,5.792-11.487,10.38-15.971c1.221-1.344,3.139-1.154,4.77-1.335c5.19-0.248,9.798-2.986,14.225-5.457
		c8.405-5.104,17.02-9.998,24.509-16.418c3.816-3.159,6.478-7.423,10.16-10.724c3.635-3.463,8.205-5.667,12.641-7.909
		C322.128,105.781,322.701,97.509,321.737,89.333z M277.812,128.753c-1.25,0.067-2.49,0.125-3.74,0.181
		c1.498-3.196,3.368-6.201,5.286-9.168c2.242,0.01,4.494,0.086,6.745,0.181C283.441,122.981,280.618,125.852,277.812,128.753z"/>
	<path fill="#0098CB" d="M1621.672,127.465c8.434-2.652,16.791-5.552,25.311-7.928c0.297,10.218-0.447,20.493,0.354,30.672
		c6.859,0.563,13.768-0.2,20.646,0.324c1.059,6.125-0.027,12.822,0.459,19.167c-7.023,0.515-14.055,0.076-21.066,0.21
		c-0.725,17.888-0.162,35.785-0.391,53.673c0.314,5.906-0.287,13.29,5.064,17.249c5.123,2.729,11.184,1.079,16.371-0.629
		c-0.172,5.991,0.133,11.983-0.104,17.964c-0.172,0.306-0.525,0.907-0.705,1.212c-8.559,3.893-18.527,4.274-27.604,2.08
		c-6.391-1.565-12.027-5.944-14.844-11.916c-3.664-7.126-3.605-15.322-3.549-23.135c0.027-16.839-0.037-33.687,0.039-50.535
		c0-2.042-0.344-4.064-0.678-6.067c-5.43,0.2-10.848,0.19-16.258,0c0.162-6.469,0.01-12.937,0.059-19.405
		c5.305-0.133,10.627,0.182,15.939-0.077c1.252-0.973,0.764-2.671,0.926-4.035C1621.605,140.011,1621.547,133.742,1621.672,127.465z
		"/>
	<path fill="#0098CB" d="M358.105,137.158c10.475,1.269,20.635,4.378,30.48,8.128c-0.362,2.309-1.25,4.475-2.309,6.555
		c-9.217-3.587-18.823-5.887-28.469-7.919C357.923,141.67,358.019,139.419,358.105,137.158z"/>
	<path fill="#0098CB" d="M56.01,201.66c-0.802-20.073,7.766-39.325,19.386-55.267c-6.258,17.812-3.673,37.045-0.582,55.219
		c2.337,13.881,5.276,27.743,5.629,41.873c3.921-16.953,12.298-32.809,24.08-45.603c5.534-5.962,11.887-11.085,18.165-16.228
		c4.856-4.007,9.741-8.176,13.166-13.519c-1.784,10.055-6.296,19.405-10.637,28.583c-7.222,15.112-18.46,27.695-28.545,40.909
		c-7.861,10.323-13.375,22.239-16.924,34.688c-0.916-5.991-3.883-11.295-5.753-16.981c-0.029,0.362-0.076,1.088-0.105,1.45
		c-1.316-3.53-3.062-6.859-4.885-10.141C61.916,232.695,55.695,217.583,56.01,201.66z"/>
	<path fill="#0098CB" d="M605.991,147.185c0.048-0.153,0.134-0.468,0.182-0.62c2.327,4.141,5.314,7.88,7.557,12.078
		c8.404,14.979,13.203,32.438,11.219,49.658c-1.422,15.98-8.672,30.596-16.027,44.582c-3.044,6.258-6.497,12.536-7.375,19.548
		c-2.433-7.27-4.827-14.606-8.49-21.37c-7.622-14.635-19.749-26.16-28.696-39.907c-6.249-9.397-11.41-19.52-15.255-30.138
		c-1.497-4.169-3.14-8.338-3.74-12.756c5.362,7.899,13.347,13.375,20.474,19.529c17.518,13.929,29.891,33.992,34.898,55.763
		c0.524-20.359,6.345-40.088,8.205-60.305C610.35,171.198,609.93,158.748,605.991,147.185z"/>
	<path fill="#0098CB" d="M1004.088,149.799c3.809-1.536,7.996-1.135,12.014-1.011c0.344,8.348,0.096,16.706,0.143,25.053
		c-4.15-0.334-8.387-0.907-12.498,0.009c-5.018,1.412-9.627,4.637-12.211,9.225c-3.436,5.515-4.094,12.174-4.111,18.518
		c-0.029,19.815,0.027,39.621-0.029,59.427c-8.186,0.028-16.371,0.134-24.547,0.019c-0.238-0.2-0.717-0.611-0.965-0.811
		c-0.189-20.483-0.018-40.976-0.076-61.468c-0.104-16.133,0.307-32.266-0.457-48.389c7.623,0.02,15.244,0.058,22.877-0.01
		c0.314,6.87,0.523,13.739,0.85,20.607C987.938,161.686,994.635,152.957,1004.088,149.799z"/>
	<path fill="#0098CB" d="M239.966,166.981c1.508-0.153,3.015-0.287,4.532-0.401c-0.181,1.192-0.372,2.376-0.553,3.568
		C242.551,169.175,241.226,168.116,239.966,166.981z"/>
	<path fill="#0098CB" d="M1443.689,212.823c0.256-14.634-0.641-29.785-7.014-43.217c-3.541-7.327-9.32-13.672-16.705-17.221
		c-7.021-3.521-15.074-4.16-22.791-3.635c-11.641,1.106-22.182,8.223-28.383,18.002c-9.656,14.683-11.621,33.01-10.209,50.165
		c1.643,14.416,7.68,29.337,19.998,37.818c9.959,6.945,22.715,9.006,34.611,7.709c8.814-0.707,17.555-3.034,25.453-7.032
		c-1.137-6.821-0.639-13.767-1.422-20.617c-3.824,1.86-7.355,4.36-11.41,5.724c-6.43,2.175-13.365,2.71-20.102,2.28
		c-7.25-0.477-14.854-3.797-18.518-10.361c-3.654-5.81-4.15-12.841-4.197-19.519
		C1403.236,212.804,1423.463,213.014,1443.689,212.823z M1382.938,195.697c0.102-8.595,1.742-17.859,7.82-24.356
		c5.695-6.048,16.533-6.048,21.896,0.448c5.447,6.603,6.238,15.704,6.221,23.946
		C1406.891,195.735,1394.908,195.821,1382.938,195.697z"/>
	<path fill="#0098CB" d="M944.672,186.509c-2.109-10.398-6.545-20.778-14.807-27.762c-10.352-9.292-25.281-11.495-38.648-9.511
		c-10.743,1.66-20.961,7.384-27.228,16.379c-8.109,11.477-10.618,26.026-10.237,39.84c-0.382,11.993,1.45,24.271,6.84,35.099
		c5.114,10.39,15.046,18.232,26.369,20.722c13.185,2.987,27.955,1.88,39.488-5.657c9.855-6.573,15.541-17.793,17.889-29.136
		C946.98,213.346,947.238,199.675,944.672,186.509z M919.447,216.943c-0.906,7.651-2.557,15.828-7.814,21.762
		c-6.506,7.365-19.958,6.058-25.004-2.375c-6.363-9.979-6.525-22.315-6.345-33.763c-0.028-8.615,0.906-17.583,4.952-25.329
		c1.869-3.646,4.808-6.813,8.672-8.33c5.562-2.356,12.538-1.307,16.934,2.919c4.121,3.988,6.191,9.56,7.412,15.055
		C920.324,196.746,920.238,206.945,919.447,216.943z"/>
	<path fill="#0098CB" d="M1163.621,223.594c0-30.539,0-61.086,0-91.625c-0.18-10.676,0.363-21.371-0.295-32.037
		c-8.463,0.086-16.916,0.009-25.367,0.066c-0.047,16.066,0.01,32.142-0.018,48.209c-0.086,5.81,0.408,11.678-0.668,17.43
		c-1.299-2.92-2.807-5.791-5.096-8.052c-11.027-12.231-32.293-11.916-43.637-0.258c-9.055,9.168-12.498,22.267-14.006,34.717
		c-1.193,15.283-0.963,31.082,4.275,45.669c3.27,9.006,9.061,17.687,17.943,21.933c9.102,4.265,20.197,4.256,29.213-0.295
		c6.27-3.263,10.57-9.359,13.213-15.77c0,5.839,0.803,11.649,1.041,17.478c7.906-0.01,15.826-0.019,23.744,0.028
		C1163.365,248.599,1163.707,236.092,1163.621,223.594z M1137.453,213.108c-0.678,8.92-2.117,18.794-8.701,25.425
		c-4.246,4.636-11.42,5.39-17.115,3.396c-4.836-1.813-7.822-6.545-9.357-11.258c-3.006-9.693-2.625-19.968-2.586-29.986
		c-0.049-6.792,0.781-13.651,3.023-20.082c1.717-4.654,4.693-9.319,9.539-11.141c5.221-1.765,11.689-1.365,15.904,2.537
		c5.238,4.503,7.184,11.525,8.463,18.06C1137.797,197.672,1138.369,205.438,1137.453,213.108z"/>
	<path fill="#0098CB" d="M424.466,198.77c0.448-3.921,4.055-7.279,7.966-7.355c2.176,0.372,1.938,3.101,0.621,4.331
		c0.478,1.278,0.906,2.576,1.308,3.883c-1.899-1.116-3.654-2.499-5.64-3.463c-1.717-0.362-1.983,1.593-2.689,2.671
		c1.183,1.212,2.375,2.442,3.597,3.645c-0.124,1.822-0.659,3.578-1.365,5.257c-2.012,0.525-4.024,1.087-6.104,1.211
		c-1.489-2.509,2.089-3.129,3.644-4.131C425.392,202.786,424.838,200.792,424.466,198.77z"/>
	<path fill="#0098CB" d="M1539.883,242.655c-0.027-14.33,0.01-28.65,0-42.97c-0.01-10.265,0.285-20.827-3.158-30.653
		c-2.709-8.176-9.311-15.016-17.545-17.668c-17.42-5.267-36.836-3.073-52.957,5.237c0.094,7.127,1.059,14.196,1.277,21.313
		c6.25-3.396,12.25-7.566,19.357-8.997c7.766-1.793,17.182-2.299,23.393,3.607c5.066,5.256,6.25,12.984,5.648,19.996
		c-13.166-0.134-26.656,0.257-39.145,4.865c-7.338,2.853-14.395,7.823-17.65,15.208c-3.613,7.518-4.188,16.142-3.062,24.309
		c1.26,7.804,5.506,15.197,11.994,19.815c9.816,7.28,23.773,7.957,34.592,2.557c5.877-2.852,10.027-7.995,14.072-12.946
		c0.02,4.97,0.449,9.931,1.395,14.816c7.611-0.105,15.244-0.162,22.867,0.019C1541.037,254.972,1539.844,248.847,1539.883,242.655z
		 M1510.365,237.407c-3.092,5.047-9.273,7.088-14.93,6.888c-5.373,0.333-10.791-2.442-13.52-7.079
		c-2.596-4.017-2.623-9.025-2.109-13.604c0.727-6.058,5.285-11.248,10.953-13.289c7.947-3.244,16.678-3.234,25.129-3.416
		C1515.984,217.182,1516.443,228.545,1510.365,237.407z"/>
	<path fill="#0098CB" d="M331.201,215.532c5.762-2.891,12.24-3.646,18.27-5.782c0.812,4.246,0.41,8.577,0.105,12.851
		c-0.792,15.914,0.029,31.875-1.126,47.768c0.01,10.818-0.4,21.629-0.41,32.447c0,2.021-0.277,4.025-0.591,6.028
		c-4.837,1.25-9.521,3.005-14.377,4.16c-0.135-15.504-0.144-31.024-0.888-46.52C332.041,249.495,331.812,232.504,331.201,215.532z"
		/>
	<path fill="#0098CB" d="M49.561,279.452c-7.603-19.358-6.306-40.995-1.173-60.791c0.411,18.222,11.048,33.601,19.625,48.913
		c7.193,12.812,13.423,26.302,16.877,40.632c0.515-4.024,0.839-8.08,0.982-12.144c0.763-11.955,3.177-24.071,9.149-34.595
		c6.401-11.716,16.343-21.094,22.305-33.077c1.393,6.602,0.344,13.337-0.124,19.978c-1.479,13.08-6.144,25.568-11.801,37.37
		c-5.323,11.362-10.733,22.991-12.278,35.585c-0.935,5.543-0.649,11.172-0.992,16.763c-4.074-9.302-10.799-17.058-17.716-24.356
		C64.51,303.637,54.913,292.723,49.561,279.452z"/>
	<path fill="#0098CB" d="M314.992,230.186c0.381-5.515,4.809-9.798,9.703-11.802c-0.029,4.885,0.124,9.769,0.381,14.654
		c-1.66,1.288-2.919,2.977-3.883,4.837c1.907,1.87,4.359,3.672,4.217,6.668C319.437,242.512,314.496,236.711,314.992,230.186z"/>
	<path fill="#0098CB" d="M632.818,218.68c4.713,18.432,6.221,38.342,0.314,56.688c-4.951,15.245-15.722,27.582-26.77,38.8
		c-4.952,5.571-10.247,10.991-13.872,17.562c-0.992,1.737-2.108,3.396-3.351,4.972c-0.409-6.21-0.209-12.488-1.593-18.595
		c-2.423-13.978-9.177-26.599-14.938-39.393c-3.989-9.387-7.338-19.137-8.444-29.326c-0.572-6.983-1.956-14.101-0.286-21.037
		c6.535,13.319,18.098,23.46,24.251,37.017c6.869,13.929,7.594,29.765,7.441,45.011c4.483-18.612,13.214-35.843,22.954-52.205
		C625.615,246.032,632.388,233.057,632.818,218.68z"/>
	<path fill="#0098CB" d="M355.099,286.617c0.114-7.881-0.391-15.828,0.697-23.651c10.723,3.959,22.229,8.214,29.557,17.488
		c6.354,7.985,7.698,19.452,4.255,28.944c-3.97,10.009-14.178,15.321-23.708,18.898c-10.199,3.475-20.588,6.459-30.529,10.629
		c-3.129,1.46-6.888,3.023-8.042,6.602c-0.505,7.07,0.257,14.168-0.048,21.246c-7.565-3.49-14.931-9.529-16.772-18.039
		c-1.059-5.028-0.41-10.609,2.528-14.914c2.977-3.948,6.878-7.192,11.277-9.435c10.008-5.562,21.359-7.86,31.922-12.097
		c4.666-2.062,9.579-5.047,11.334-10.132c1.449-3.388,0.095-7.404-2.51-9.826C362.322,289.557,358.714,287.924,355.099,286.617z"/>
	<path fill="#0098CB" d="M108.214,313.311c3.205-9.606,5.981-19.349,7.527-29.375c3.177,9.389,6.039,18.967,6.726,28.908
		c2.156,19.635-3.902,38.963-3.329,58.588c0.2,8.012,0.438,16.283,3.091,23.926c0.191,2.442,0.448,4.896,1.116,7.261
		c-9.158-10.79-22.219-16.925-33.438-25.196c-10.151-6.744-19.291-14.949-27.066-24.318c-13.633-16.562-20.455-37.998-21.332-59.264
		v-6.631c5.352,15.655,17.315,27.732,28.554,39.393c9.435,9.702,18.594,19.768,26.379,30.873c3.282,4.492,5.915,9.416,9.445,13.729
		c-0.944-7.88-2.776-15.665-2.814-23.632C102.539,335.939,104.694,324.35,108.214,313.311z"/>
	<path fill="#0098CB" d="M558.489,315.075c0.734-10.503,3.139-20.894,7.021-30.683c1.116,4.817,1.642,9.752,3.005,14.512
		c2.768,9.912,6.649,19.529,8.281,29.729c2.644,14.139,0.992,28.611-1.65,42.616l-1.23-0.582c0.076,1.45,0.125,2.919,0.334,4.369
		c1.708-2.079,2.175-4.854,3.606-7.107c9.387-15.637,21.551-29.385,34.277-42.368c8.749-9.33,17.983-18.547,23.994-29.976
		c1.421-2.565,2.337-5.362,3.091-8.187c1.126,15.847-2.433,31.836-8.796,46.31c-7.499,16.705-20.512,30.366-35.281,40.928
		c-12.229,9.349-26.502,16.076-37.12,27.457c2.279-10.389,4.063-20.94,4.034-31.616C562.287,351.93,557.154,333.659,558.489,315.075
		z"/>
	<path fill="#0098CB" d="M354.833,294.038c2.633,0.772,5.687,1.907,6.649,4.771c0.058,3.789-3.588,5.812-6.668,6.957
		C354.708,301.854,354.699,297.941,354.833,294.038z"/>
	<path fill="#0098CB" d="M1207.039,295.671c3.797-1.174,7.785-0.772,11.707-0.772c4.98,0.076,9.988-0.324,14.949,0.392
		c-0.037,8.729,0.076,17.458-0.086,26.188c-8.684,0.047-17.363-0.029-26.035,0.047
		C1206.602,312.938,1207.412,304.285,1207.039,295.671z"/>
	<path fill="#0098CB" d="M1518.789,295.384c8.414-0.925,16.943-0.438,25.395-0.353c0.248,0.21,0.744,0.63,0.992,0.839
		c0.201,8.54,0.115,17.106-0.02,25.653c-8.795-0.075-17.582,0.029-26.359-0.066C1518.799,312.768,1518.836,304.075,1518.789,295.384
		z"/>
	<path fill="#0098CB" d="M1455.012,319.426c8.453-2.881,16.906-5.887,25.561-8.186c0.094,10.17,0.018,20.35,0.018,30.52
		c6.994,0.754,14.043,0.096,21.066,0.391c-0.012,6.518-0.049,13.023-0.012,19.529c-7.039,0.276-14.1-0.324-21.111,0.438
		c0.209,19.329-0.029,38.667,0.125,58.005c0.025,4.104,0.629,8.807,3.834,11.726c5.076,3.521,11.783,2.262,17.135,0.028
		c0.02,6.363,0,12.727,0.029,19.091c-8.053,3.788-17.184,3.893-25.846,2.814c-6.336-1.25-12.803-4.465-16.02-10.313
		c-4.75-7.843-4.99-17.345-4.74-26.234c-0.029-18.395,0.066-36.799-0.059-55.2c-5.484-0.648-11.02,0.028-16.484-0.277
		c-0.975-6.534-0.449-13.251-0.076-19.834c5.533-0.43,11.104,0.782,16.629-0.343
		C1455.031,334.193,1455.088,326.811,1455.012,319.426z"/>
	<path fill="#0098CB" d="M802.97,354.771c-2.634-15.75-9.169-31.559-21.581-42.09c-11.382-9.828-27.343-14.082-42.101-11.363
		c-8.702,1.229-17.021,4.941-23.795,10.521c-12.564,10.189-19.396,25.77-22.343,41.357c-2.041,11.981-3.007,24.252-1.632,36.378
		c1.326,18.65,7.185,38.008,20.808,51.422c17.297,16.877,46.767,18.614,66.104,4.265c12.977-9.482,20.417-24.748,23.728-40.154
		C805.66,388.592,805.631,371.411,802.97,354.771z M777.316,388.611c-1.116,13.3-3.264,27.725-12.574,37.989
		c-8.901,9.675-25.883,9.168-34.365-0.791c-8.91-10.543-10.79-24.871-11.839-38.151c-0.611-15.008-0.325-30.434,4.494-44.812
		c2.976-8.89,9.177-17.334,18.489-20.186c7.146-1.604,15.226-0.534,20.969,4.283c5.973,5.057,9.692,12.354,11.583,19.863
		C777.764,360.382,778.117,374.635,777.316,388.611z"/>
	<path fill="#0098CB" d="M864.055,341.426c3.77-1.431,7.871-1.029,11.821-0.857c0.305,8.328,0.182,16.666,0.095,24.994
		c-6.172-0.733-12.86-0.953-18.26,2.633c-7.585,4.732-10.342,14.179-10.485,22.649c-0.123,20.692,0,41.396-0.048,62.099
		c-7.823-0.01-15.637-0.086-23.45,0.02c-2.118,0.667-2.289-1.928-2.166-3.271c0.088-23.843,0.021-47.674,0.039-71.516
		c-0.048-12.021,0.238-24.051-0.516-36.053c7.68,0.124,15.389-0.419,23.061,0.105c0.123,6.592,0.133,13.213,1.135,19.737
		C848.084,352.854,854.783,344.46,864.055,341.426z"/>
	<path fill="#0098CB" d="M1145.104,341.368c7.746-1.822,16.314-1.509,23.525,2.108c6.422,3.5,11.125,9.701,13.301,16.639
		c3.854,11.039,2.785,22.839,2.918,34.307c-0.047,19.5,0.098,39.001-0.064,58.502c-8.502,0-17.002-0.134-25.502,0.048
		c-0.059-23.041,0.02-46.069-0.039-69.11c-0.094-6.324-0.916-13.31-5.266-18.23c-4.475-4.036-11.496-3.979-16.715-1.46
		c-5.57,2.7-8.195,8.949-9.359,14.691c-1.783,14.646-0.199,29.424-0.887,44.104c0.172,10.008,0.41,20.044-0.189,30.043
		c-8.34-0.19-16.678-0.162-25.006-0.048c-1.031-6.145-0.221-12.384-0.535-18.575c-0.266-9.529,0.525-19.062-0.018-28.583
		c-0.307-21.208,0.686-42.407-0.412-63.596c7.898-0.858,15.877,0.248,23.822-0.097c0.115,5.4,0.582,10.791,1.002,16.182
		C1130.078,350.756,1136.336,343.639,1145.104,341.368z"/>
	<path fill="#0098CB" d="M1711.131,350.451c5.086-6.153,12.881-10.046,20.904-10.104c7.842-0.392,16.246,1.545,22.02,7.174
		c6.82,6.393,9.139,15.971,10.436,24.891v80.53c-8.424-0.086-16.838-0.076-25.252-0.01c-0.098-20.482-0.039-40.957-0.039-61.432
		c-0.123-7.688,0.287-15.836-3.205-22.915c-3.578-7.174-13.863-7.643-20.053-3.77c-7.07,4.752-8.76,13.969-9.035,21.896
		c-0.115,22.066,0.113,44.133-0.135,66.2c-8.365-0.028-16.742-0.104-25.102,0.038c-1.039-10.914-0.209-21.896-0.467-32.838
		c-0.268-25.997,0.582-52.022-0.553-78.002c8.021,0.037,16.045-0.221,24.068,0.162c-0.01,5.371,0.23,10.742,0.604,16.104
		C1707.23,355.727,1709.051,352.998,1711.131,350.451z"/>
	<path fill="#0098CB" d="M333.901,346.311c4.303-2.004,8.749-3.691,13.29-5.084c-0.221,20.902-1.116,41.785-1.078,62.707
		c-0.907,12.708-0.449,25.465-0.945,38.19c-0.181,3.893-0.753,7.956-3.416,11c-0.963-0.087-1.917-0.152-2.862-0.22
		c-1.832-2.614-3.062-5.628-3.129-8.854c-0.678-15.913-0.782-31.854-0.954-47.787c-0.134-7.003,0.085-14.015-0.562-20.997
		C334.053,365.609,334.053,355.965,333.901,346.311z"/>
	<path fill="#0098CB" d="M1207.842,342.236c4.885-0.982,9.826,0.029,14.75-0.133c3.625-0.059,7.25-0.059,10.885,0.095
		c-0.084,36.901-0.02,73.823-0.037,110.734c-8.512-0.039-17.012-0.028-25.512-0.02
		C1207.746,416.021,1207.918,379.129,1207.842,342.236z"/>
	<path fill="#0098CB" d="M1258.223,342.094c22.992,0.01,45.986-0.058,68.979,0.028c-0.02,6.287-0.029,12.574,0.037,18.86
		c-0.066,1.928,0.174,4.045-1.039,5.705c-14.195,21.828-28.562,43.553-42.635,65.456c13.393,0.248,26.789,0.049,40.182,0.087
		c1.699,0.02,3.398,0.334,5.096,0.63c-0.354,6.707,0.381,13.462-0.523,20.14c-23.898-0.21-47.797-0.125-71.695-0.038
		c0-7.795-0.039-15.59-0.01-23.384c10.025-14.902,19.938-29.891,29.977-44.782c4.713-7.46,10.025-14.53,14.443-22.181
		c-14.264-0.297-28.535-0.021-42.799-0.145C1258.176,355.67,1258.186,348.886,1258.223,342.094z"/>
	<path fill="#0098CB" d="M1522.318,342.218c8.404-0.286,16.84-0.134,25.254-0.038c-0.152,36.92,0.076,73.853-0.115,110.772
		c-8.348-0.144-16.695-0.086-25.043,0.038c-1.105-9.32-0.266-18.746-0.525-28.115c-0.02-26.074,0.049-52.157-0.008-78.23
		C1521.947,345.175,1521.707,343.602,1522.318,342.218z"/>
	<path fill="#0098CB" d="M130.586,344.66c11.591,16.828,19.901,36.109,22.868,56.402c1.975,11.601,2.919,23.525,7.251,34.573
		c2.127,5.581,5.151,10.762,8.262,15.847c-6.86-4.397-14.645-7.106-22.544-8.968c-15.15-3.75-30.749-6.841-44.525-14.521
		c-16.362-8.614-28.649-23.536-36.444-40.079c-3.416-6.869-5.973-14.108-8.396-21.369c-1.564-1.088-2.375-2.758-0.906-4.351
		c-0.381-1.346-0.745-2.7-1.088-4.055c4.971,9.377,11.84,17.84,20.188,24.424c17.688,14.414,39.602,22.143,57.996,35.47
		c2.881,2.042,5.486,4.417,7.938,6.955c-7.775-11.83-11.067-26.188-10.742-40.231C130.12,371.373,132.562,357.998,130.586,344.66z"
		/>
	<path fill="#0098CB" d="M550.58,344.643c-0.801,7.344-1.182,14.758-0.343,22.123c0.409,13.565,1.708,27.533-2.3,40.718
		c-1.201,4.923-3.969,9.293-4.894,14.301c16.743-13.804,37.484-21.274,55.229-33.554c11.516-7.594,21.484-17.754,27.904-30.031
		c-4.045,16.876-10.655,33.419-21.056,47.425c-10.284,14.081-25.548,24.041-42.043,29.326c-16.792,6.066-35.433,6.955-50.946,16.438
		c4.724-7.165,8.672-14.95,10.771-23.307c2.795-10.075,3.481-20.55,5.476-30.787C531.633,378.328,539.791,360.486,550.58,344.643z"
		/>
	<path fill="#0098CB" d="M170.092,349.84c1.041,0.145,2.09,0.297,3.139,0.449c1.46,2.729,2.757,5.562,3.654,8.538
		c-0.429-0.144-1.288-0.438-1.717-0.582C173.5,355.432,171.734,352.674,170.092,349.84z"/>
	<path fill="#0098CB" d="M1659.023,386.704c-1.365-14.015-6.201-28.897-17.803-37.751c-9.76-7.518-22.621-9.607-34.633-8.319
		c-10.924,1.259-21.779,6.431-28.486,15.351c-5.641,7.137-8.539,16.019-10.123,24.873c-1.125,8.242-1.898,16.618-0.975,24.929
		c0.803,11.037,3.359,22.334,9.721,31.578c4.688,7.069,12.033,12.135,20.057,14.759c7.24,2.595,15.074,2.318,22.658,2.021
		c8.09-0.667,16.199-3.425,22.516-8.634c6.191-4.685,10.285-11.582,13.061-18.709
		C1659.729,414.009,1659.785,400.137,1659.023,386.704z M1631.318,416.375c-1.316,6.059-3.809,12.288-8.92,16.124
		c-4.131,3.139-9.703,3.062-14.549,2.079c-5.307-1.946-8.979-6.869-10.973-11.982c-3.645-9.589-3.893-20.006-3.664-30.128
		c0.41-8.28,1.471-16.829,5.533-24.204c2.07-3.902,5.695-6.965,9.951-8.225c5.791-1.632,12.562,0.066,16.514,4.723
		c3.846,4.569,5.582,10.456,6.67,16.219C1633.617,392.706,1633.617,404.726,1631.318,416.375z"/>
	<path fill="#0098CB" d="M975.229,371.448c-0.238-9.761,0.238-19.501,0.771-29.241c-7.65-0.21-15.311-0.152-22.963-0.066
		c-0.381,5.867-1.029,11.715-0.982,17.603c-2.193-4.063-4.846-7.908-8.004-11.286c-5.15-5.4-12.592-8.453-20.062-8.09
		c-10.352-0.592-20.703,4.378-26.866,12.688c-6.087,8.109-8.901,18.108-10.493,27.989c-1.642,14.206-1.823,28.889,2.146,42.751
		c2.604,8.901,7.202,17.679,14.978,23.088c8.967,6.439,21.324,7.728,31.475,3.454c6.936-3.006,11.896-9.207,15.045-15.914
		c0.104,11.124,1.23,23.108-4.379,33.22c-3.787,7.261-12.031,11.105-19.969,11.295c-12.021,0.937-23.593-3.51-33.982-9.119
		c-0.726,3.721-0.783,7.509-0.937,11.287c-0.163,4.054-1.049,8.089-0.687,12.162c10.475,4.847,22.228,6.469,33.677,7.214
		c10.055,0.161,20.492-0.983,29.441-5.916c6.219-3.302,11.305-8.605,14.473-14.883c6.896-12.946,7.451-28.058,7.326-42.396
		C975.219,415.343,975.229,393.391,975.229,371.448z M950.158,419.561c-1.928,5.982-6.707,11.229-12.928,12.746
		c-4.273,1.068-9.475,1.271-12.812-2.09c-6.734-6.189-8.205-15.836-9.215-24.47c-0.611-10.228-0.812-20.722,1.965-30.683
		c1.496-5.352,4.521-10.723,9.807-13.061c6.66-2.337,15.17-0.802,19.156,5.485c4.934,6.593,6.363,14.997,7.014,23.012
		C953.516,400.232,953.383,410.27,950.158,419.561z"/>
	<path fill="#0098CB" d="M513.147,146.801c-29.546-44.716-77.181-77.115-129.71-87.896c-7.231-1.403-14.491-3.005-21.895-3.082
		c-0.496,2.223-0.859,4.475-1.031,6.755c44.516,3.94,86.989,24.252,119.207,55.029c0.115,0.429,0.333,1.297,0.448,1.727
		c-7.022,7.222-14.577,13.938-21.294,21.456c0.029-0.878,0.105-2.643,0.144-3.521c-2.308-0.83-4.693-1.45-7.068-2.032
		c0.313-0.306,0.924-0.916,1.229-1.222c-1.555-4.264-1.803-9.292-5.2-12.631c-4.751-5.973-12.479-7.881-18.688-11.84
		c-2.52-2.004-5.2,0.487-7.643,1.345c3.302,5.438,6.334,11.143,7.728,17.401c1.498,5.477,1.546,11.172,1.784,16.791
		c2.317,3.969,5.781,7.155,8.167,11.095c-0.868,0.096-2.597,0.296-3.464,0.392c0.658,1.66,1.728,3.224,1.928,5.028
		c-1.994,2.681-4.627,4.78-7.271,6.783c-0.83-1.536-1.641-3.082-2.441-4.627c-0.287,0.076-0.859,0.238-1.136,0.315
		c-1.347,4.379-5.314,8.119-4.37,12.994c-7.88,7.431-15.284,15.35-23.06,22.896c-0.945-0.82-1.898-1.612-2.872-2.385
		c-2.537-2.614-5.762,0.831-8.462,1.508c0.086,0.649,0.277,1.947,0.372,2.595c-1.288,1.059-2.519,2.166-3.711,3.32
		c-2.165,0.038-4.293,0.401-6.373,0.992c0.076,0.715,0.219,2.127,0.286,2.833c1.956-0.354,3.922-0.726,5.887-1.059
		c2.633-2.327,6.372-5.39,9.864-2.681c-2.796,2.881-5.696,5.657-8.52,8.51c-5.306,0.505-11.173,0.381-15.256,4.34
		c1.718-1.993,3.636-3.806,5.276-5.876c-0.382-0.438-1.135-1.336-1.507-1.784c-2.119,2.49-4.142,5.047-6.183,7.594
		c0.639,1.069,1.326,2.137,2.032,3.187c0.667,1.04,1.363,2.062,2.108,3.053c-2.834,0.058-5.734,0.525-8.521-0.114
		c-2.557-0.926-4.827-2.471-7.146-3.864c-0.41,2.06-0.782,4.14-0.734,6.258c0.152,9.913-0.477,19.816-0.276,29.729
		c10.952,3.387,21.838,8.014,30.558,15.646c13.461,11.696,16.219,34.489,4.455,48.284c-9.215,10.979-23.604,14.92-36.816,18.813
		c-0.133,6.401-0.447,12.822-0.048,19.224c10.256,4.618,20.265,11.42,25.597,21.619c5.028,8.958,5.896,19.596,4.886,29.641
		c-0.343,3.378-2.585,6.622-6.039,7.347c-8.596,2.053-17.382,3.291-26.188,4.074c0.02,2.223,0.039,4.445,0.059,6.688
		c18.918-0.524,37.436-5.801,54.837-12.994c16.638-7.375,32.16-17.335,45.612-29.613c1.002-0.782,2.537-2.766,3.825-1.286
		c7.375,7.049,14.167,14.737,21.875,21.444c-0.237,1.364-0.686,2.738-1.821,3.626c-18.146,16.619-39.183,30.186-62.137,39.135
		c-28.926,11.629-60.647,16.113-91.662,13.241c-44.611-3.711-87.399-23.545-119.809-54.303c7.804-7.891,15.551-15.886,23.593-23.527
		c3.138,1.738,5.486,4.571,8.262,6.804c26.312,21.732,59.464,35.528,93.628,37.513c0-2.271-0.01-4.541-0.048-6.812
		c-12.66-1.135-25.272-3.453-37.332-7.536c-21.866-7.089-41.844-19.32-58.845-34.718c1.221-2.729,3.396-5.019,5.896-6.592
		c2.91-0.152,5.791,0.467,8.701,0.381c1.956-1.383,3.206-3.787,5.505-4.636c3.93-0.02,7.842,0.477,11.773,0.343
		c0.544-1.832,1.059-3.663,1.536-5.515c12.326,9.111,26.216,16.162,41.004,20.255c7.003,1.946,14.196,3.758,21.523,3.653
		c-0.182-2.252-0.393-4.494-0.668-6.727c-24.853-2.604-48.427-13.804-66.954-30.443c6.974-7.375,14.396-14.309,21.408-21.656
		c0.849-0.782,2.118-2.365,3.358-1.308c5.886,4.438,11.734,9.188,18.718,11.821c0.735-2.214,1.488-4.418,2.271-6.604
		c-5.925-3.032-12.049-6.381-16.505-11.41c6.992-7.564,14.539-14.644,21.78-21.989c1.393-1.726,3.549-0.286,4.95,0.63
		c2.978,2.061,6.249,3.626,9.693,4.761c-0.009-2.5-0.028-4.999-0.057-7.499c-2.72-1.354-5.333-2.9-7.861-4.561
		c2.213-2.318,4.493-4.578,6.611-6.982c-2.548-0.974-5.182-1.746-7.871-2.224c-1.249,1.46-2.528,2.901-3.797,4.351
		c-2.356-2.672-4.36-5.619-6.173-8.682c-8.251-3.626-16.075-8.52-22.237-15.169c-6.612-7.604-11.019-17.401-11.267-27.562
		c-0.363-7.68-0.077-15.55,2.652-22.83c1.432-4.656,4.418-8.567,6.622-12.851c-8.109-7.651-15.79-15.722-23.708-23.564
		c17.478-16.906,40.308-27.782,64.235-31.731c0-2.338-0.114-4.685-0.61-6.984c-25.567,3.95-49.886,15.618-68.566,33.563
		c-1.479-1.355-2.967-2.786-4.904-3.454c-0.753,1.87-1.86,3.654-2.156,5.677c0.296,1.27,1.069,2.452,1.059,3.787
		c-0.849,1.298-1.946,2.395-2.986,3.54c-18.948,21.819-29.404,50.45-30.119,79.261c-11.258-0.047-22.507,0.106-33.764-0.114
		c0.897-39.506,16.247-79.031,44.21-107.233c3.607,3.826,7.155,7.747,11.315,10.991c2.404-0.658,4.799-1.383,7.146-2.223
		c-3.854-4.283-8.118-8.176-12.125-12.316c-0.535-0.553-1.45-1.488-0.735-2.251c6.44-6.573,13.881-12.068,21.389-17.354
		c1.631-0.982,1.889-3.014,2.672-4.598c1.078-2.881,3.244-5.133,4.932-7.642c-1.202,0.401-2.404,0.783-3.501,1.413
		c-9.093,5.323-17.688,11.496-25.54,18.517c-1.975,1.766-3.998,3.483-6.135,5.038c-6.382-6.459-12.812-12.87-19.252-19.262
		c-1.345-1.469-3.234-2.662-3.797-4.665c31.922-30.892,74.357-50.946,118.643-55.22c-0.372-2.203-0.745-4.417-1.06-6.63
		c-11.124,0.429-22.066,2.967-32.809,5.743c-55.792,14.778-104.18,54.398-130.307,105.778
		c-11.239,21.915-18.508,45.88-21.285,70.351c-4.665,39.583,2.471,80.473,20.273,116.135c15.436,31.062,38.896,58.053,67.316,77.905
		c30.272,21.171,66.334,34.05,103.208,36.474c34.422,2.586,69.492-3.645,100.87-18.041c33.609-15.389,62.945-39.916,84.068-70.254
		c23.631-33.906,37.017-75.025,36.987-116.421C548.561,222.341,536.083,181.051,513.147,146.801z M255.623,344.211
		c-2.271-2.586-4.761-5.027-6.64-7.929c-0.22-2.929,0.496-5.839,0.295-8.759c-0.391-3.168-2.786-5.676-3.167-8.844
		c-0.343-3.406-0.458-6.82-0.83-10.217c-0.124-4.477-4.455-7.767-3.702-12.395c0.43-3.959-2.022-7.346-3.902-10.588
		c-0.802-1.584-2.538-2.215-4.064-2.854c1.593-4.293-0.486-8.52,0.191-12.851c1.898-0.315,3.797-0.63,5.705-0.916
		c0.2-0.525,0.601-1.594,0.811-2.118c2.919-0.505,5.896-0.543,8.834-0.076c0.277,3.501-0.19,6.983-1.011,10.379
		c-0.725,2.919,1.393,5.534,2.042,8.272c-1.24-0.431-2.471-0.868-3.692-1.326c1.184,3.177,1.327,8.31,5.333,9.197
		c0.401-4.207-1.336-8.217-1.097-12.402c-0.125-4.854,1.688-9.586,0.925-14.451c1.546-0.02,3.101-0.039,4.646-0.058
		c0.267,18.613,8.099,36.626,20.006,50.755c0.963,1.078,2.051,2.041,3.12,3.023C271.65,328.27,263.322,335.929,255.623,344.211z
		 M245.271,247.301c3.482-2.404,7.708-1.288,11.448-0.258c-0.085,4.179-0.362,8.348-1.097,12.469
		c-2.595-0.029-5.19-0.058-7.785-0.077c-1.135-1.755-2.433-3.434-3.234-5.371C244.154,251.804,244.965,249.524,245.271,247.301z
		 M278.081,279.165c1.879,0.603,3.769,1.192,5.572,2.004c-0.105,1.146-0.21,2.299-0.315,3.454c1.517,0.868,3.034,1.755,4.532,2.65
		c-0.21-2.822,0.763-5.438,2.49-7.631c1.908,2.08,4.493,4.062,4.608,7.137c-1.393,0.104-2.776,0.22-4.159,0.333
		c0.543,1.603,1.087,3.206,1.603,4.827c1.383-0.362,2.748-0.743,4.122-1.125c0.085-0.562,0.257-1.68,0.343-2.231
		c0.763-0.621,1.536-1.241,2.309-1.862c0.449-2.029,0.954-4.055,1.479-6.058c2.108,3.835,4.532,7.489,7.375,10.828
		c-7.613,7.748-15.322,15.407-22.964,23.116c-0.333,0.02-1.011,0.059-1.354,0.066c-9.703-10.531-16.447-23.67-19.329-37.703
		c-0.251-1.803-0.384-3.606-0.403-5.418c1.24,1.27,2.471,2.576,3.663,3.892c1.593,0.096,3.187,0.143,4.771,0.391
		C274.465,276.657,275.962,278.479,278.081,279.165z M251.082,184.116c1.059-0.82,1.679-3.091,3.253-2.776
		c3.473,2.576,6,6.173,9.159,9.092c3.978,3.645,7.661,7.604,11.582,11.315c0.887,1.011,2.337,1.994,1.822,3.549
		c-2.07,3.511-5.123,6.345-7.222,9.855c-1.737,2.442-2.776,5.4-4.923,7.528c-1.832,0.419-3.73,0.515-5.543,1.011
		c-1.459,0.982-2.643,2.309-3.912,3.51c2.891-0.295,5.762-0.801,8.644-1.202c-3.062,2.977-7.709,3.387-10.552,6.697
		c-1.879,0.028-3.778-0.048-5.648,0.162c-2.48,3.893-4.474,8.09-6.659,12.164c-0.982,1.459,0.296,3.12-0.038,4.636
		c-0.992,1.517-2.375,2.748-3.291,4.332c-0.344,1.775-0.43,3.578-0.563,5.381c-4.979,0.143-9.969,0.114-14.949,0.028
		C222.556,231.941,233.184,204.885,251.082,184.116z M232.144,266.687c-0.782,2.5-1.536,5.018-2.28,7.537
		c0.754,1.221,2.089,2.233,2.251,3.749c-0.276,1.689-1.383,3.082-2.146,4.58c-1.956-0.039-3.912-0.076-5.867-0.104
		c-0.964-5.2-1.479-10.466-1.956-15.732C225.446,266.105,228.824,266.133,232.144,266.687z M222.841,362.404
		c3.158,1.488,6.22,3.195,9.073,5.22c-1.641,1.841-3.463,3.51-5.505,4.894c-2.222-2.652-5.181-4.799-6.535-8.071
		C220.867,363.759,221.85,363.083,222.841,362.404z M214.379,266.41c2.299,2.48,0.849,6.735,1.364,9.932
		c-1.202,0.124-2.414,0.248-3.616,0.381c-1.031,6.306-6.23,10.495-9.75,15.447c-0.086,5.15,0.209,10.322-0.143,15.475
		c-4.332,1.229-8.605,3.032-13.213,2.643c-4.532-14.092-6.859-28.766-7.68-43.515C192.323,265.809,203.379,266.467,214.379,266.41z
		 M188.917,131.577c2.48-2.671,4.904-5.399,7.184-8.252c7.298,6.325,13.671,13.624,20.731,20.197
		c1.327,1.374,4.265,3.454,1.755,5.17c-27.609,29.833-43.847,69.979-44.095,110.678c-11.19,0.143-22.381,0.104-33.572,0.095
		C140.842,212.918,158.635,166.819,188.917,131.577z M140.958,266.372c11.19,0.076,22.41-0.429,33.582,0.267
		c0.2,14.778,3.034,29.382,6.974,43.589c-0.449-0.144-1.365-0.438-1.823-0.592c-0.276-0.468-0.839-1.402-1.116-1.869
		c-3.387-0.496-6.802-0.717-10.218-0.772c0.744,1.049,1.498,2.108,2.251,3.167c-2.147-0.124-4.293-0.277-6.43-0.42
		c-0.029-1.518,0.134-3.053-0.372-4.514c-2.719-0.295-5.247,1.192-7.432,2.645c-2.9,2.537-2.566,6.678-2.022,10.132
		c0.325,6.087,3.816,11.285,5.791,16.905c1.879,3.939,3.32,8.652,7.289,11c-0.764-3.979-3.53-7.107-4.952-10.829
		c-1.078-3.119-0.439-6.47-0.314-9.673c4.703,0.896,5.065,6.84,9.083,8.757c0.229-1.984,0.467-3.959,0.763-5.924
		c0.582,1.593,1.135,3.187,1.669,4.809c2.662,0.812,5.448,1.001,8.195,0.515c-0.048,2.472,0.21,5.02,2.252,6.688
		c1.135,0.411,2.624,0.431,3.357,1.565c2.242,3.101,3.931,6.554,5.811,9.883c1.431,0.21,2.862,0.421,4.293,0.63
		c0.334-1.287,0.667-2.576,0.992-3.863c6.792,10.542,14.559,20.396,23.078,29.584c-7.938,7.853-15.79,15.789-23.736,23.632
		C162.88,365.878,141.435,316.611,140.958,266.372z M464.565,144.819c7.021-6.64,13.536-13.815,20.674-20.321
		c2.89,0.649,4.321,3.873,6.382,5.81c31.044,35.395,48.933,81.999,49.286,129.09c-11.182,0.067-22.363,0.125-33.544,0.01
		c-0.572-16.505-3.004-32.981-8.101-48.732c-2.518-7.995-6.066-15.599-9.349-23.297c0.715-0.153,2.146-0.468,2.862-0.62
		c-3.243-7.565-7.909-14.406-12.898-20.912c-3.215-3.788-7.833-6.106-10.809-10.132c-1.891-2.557-4.265-4.703-6.23-7.184
		C461.845,147.032,463.687,145.802,464.565,144.819z M441.934,167.582c2.948-0.066,5.906-0.019,8.854,0.181
		c0.362,0.582,1.087,1.755,1.45,2.338c-0.354,1.021-0.688,2.041-1.03,3.072c4.503,2.69,8.567,6.726,13.967,7.422
		c3.587,3.74,6.784,7.833,10.256,11.677c1.354,1.374,2.262,3.425,4.094,4.198c2.08-0.152,4.045-0.868,6.058-1.383
		c9.178,20.13,14.492,42.197,14.396,64.359c-11.143,0.058-22.275,0.028-33.409-0.057c-0.735-7.355-0.726-14.807-2.567-22.019
		c-0.944-3.148,0.964-6.068,1.518-9.083c2.938-10.618-0.782-21.485-4.197-31.512c-2.318-4.522-5.581-8.472-8.434-12.66
		c0.83-0.506,1.68-1.021,2.527-1.527c-2.719-1.851-5.371-3.778-8.071-5.647c-0.695,4.055,2.949,6.735,4.875,9.817
		c7.327,10.761,11.028,23.679,11.765,36.616c-0.61-0.038-1.822-0.096-2.434-0.124c-1.393-3.292-4.875-6.65-2.805-10.38
		c-2.509-3.205-2.547-7.327-4.159-10.895c-0.812,0.02-2.434,0.067-3.244,0.096c-1.928-2.805-1.029-6.154,0.486-8.92
		c-0.877,0.115-2.624,0.343-3.501,0.458c0.095-1.812,0.162-3.625,0.22-5.438c-0.438-0.086-1.316-0.258-1.756-0.353
		c-0.496,1.307-0.981,2.604-1.459,3.911c-3.854-5.304-7.737-10.6-12.154-15.445C436.144,173.44,439.044,170.511,441.934,167.582z
		 M436.528,247.035c3.053-2.919,7.184-3.911,11.276-4.274c0.858-1.927,2.262-3.492,3.997-4.675c2.412-1.565,2.67-4.695,3.739-7.118
		c1.783,5.839-2.7,10.972-2.652,16.772c2.062-1.545,3.616-3.625,4.951-5.8c0.773,5.81,1.575,11.639,1.413,17.516
		c-9.703-0.124-19.425,0.268-29.106-0.2c-0.25-0.343-0.735-1.011-0.983-1.354c1.698-2.137,3.663-4.045,5.362-6.182
		c1.469-0.124,2.957-0.239,4.436-0.334C439.18,249.44,438.168,248.009,436.528,247.035z M395.463,223.508
		c0.735-0.201,2.195-0.602,2.929-0.802c-1.173-0.992-2.355-1.956-3.558-2.91c0.22-3.54,0.897-7.594,4.475-9.292
		c2.978,2.776,6.325,6.439,5.313,10.866c-1.965-0.83-4.035-1.345-6.163-1.507c0.658,1.812,1.308,3.625,1.774,5.505
		C398.63,224.767,397.047,224.128,395.463,223.508z M398.068,334.536c-2.327-1.448-4.674-2.851-7.068-4.179
		c1.688-1.162,3.101-3.127,5.256-3.396c3.702,2.327,7.271,4.875,11.133,6.927c0.105,0.562,0.315,1.678,0.42,2.241
		C404.631,335.252,401.397,334.395,398.068,334.536z M405.204,204.581c6.46-7.128,13.596-13.663,20.274-20.608
		c0.926-0.716,2.041-2.633,3.358-1.622c5.371,5.571,9.597,12.125,13.91,18.527c-1.002,0.315-1.984,0.639-2.978,0.964
		c0.066,1.889,0.125,3.778,0.182,5.676c3.605,2.834,9.226,3.959,10.522,8.93c1.316,3.692,2.995,7.299,3.816,11.144
		c-0.114,2.643-3.062,3.835-4.723,5.504c-0.153,1.288-0.286,2.595-0.419,3.893c-1.299,1.116-2.585,2.251-3.846,3.416
		c-1.584-0.076-3.156-0.153-4.731-0.219c2.09-3.492,1.593-8.014,4.475-11.086c-1.937-2.08-3.988-4.064-6.067-6.001
		c-1.546,0.449-3.092,0.877-4.638,1.297c-0.849,2.786-2.069,5.438-3.739,7.823c-2.709-0.725-4.666-2.9-4.484-5.801
		c1.136,0.592,2.271,1.212,3.406,1.823c-0.085-1.479-0.183-2.958-0.277-4.427c-0.887,0.401-2.642,1.212-3.53,1.622
		c-3.243-3.339-6.048-7.06-9.292-10.399c0.688-0.811,1.364-1.631,2.042-2.452c-1.469,0.047-2.919,0.104-4.379,0.172
		c0,0.572,0.009,1.717,0.009,2.28c-0.639-0.133-1.917-0.401-2.557-0.534C409.698,211.068,405.642,208.541,405.204,204.581z
		 M413.934,331.561c0.077-4.875,5.438-8.215,4.132-13.414c1.907-3.893,2.117-8.48,0.257-12.432c-0.839-1.459-2.824-1.27-4.179-1.841
		c-0.019,0.61-0.048,1.821-0.066,2.423c-0.354-0.027-1.078-0.095-1.432-0.133c1.812-3.389,3.96-6.594,5.715-10.018
		c1.631-3.33,5.438-4.58,8.367-6.47c-0.105-0.763-0.324-2.289-0.431-3.053c3.606,0.506,7.489,1.364,10.962-0.257
		c2.805-1.146,5.743-1.928,8.71-2.52c-0.248-1.928-0.792-3.808-2.081-5.305c0.544-0.077,1.088-0.152,1.643-0.219
		c1.546,0.352,3.081,0.742,4.627,1.135c0.038-1.05,0.124-3.149,0.162-4.198c-4.045,0.61-8.062,2.042-12.04,0.201
		c-1.64-2.965-3.204-5.98-4.396-9.148c8.443-0.038,16.888-0.066,25.329,0.067c-0.523,22.42-8.252,44.438-20.932,62.852
		c-3.481,4.762-6.945,9.664-11.372,13.604c-1.259-0.696-2.413-1.563-3.567-2.403c2.422-5.199-0.076-10.484-1.221-15.627
		c-2.118,2.309-3.816,4.94-5.496,7.573C415.958,332.18,414.612,331.761,413.934,331.561z M421.557,398.963
		c1.479-2.977,2.862-6.134,1.928-9.521c2.223-1.707,4.79-3.567,4.122-6.773c-1.316-0.639-2.614-1.27-3.922-1.898
		c1.805-4.282,4.275-8.213,7.224-11.781c1.698-2.262-1.174-4.198-2.538-5.715c-1.7-1.832-4.877-0.974-6.395-2.996
		c-1.449-3.453,2.986-4.827,4.924-6.745c7.556,8.194,15.521,16.026,23.594,23.708C441.659,385.473,432.08,393.001,421.557,398.963z
		 M455.541,372.279c-1.479-1.479-2.949-2.958-4.398-4.455c0.888-1.223,2.614-2.232,2.165-3.979
		c-0.485-5.277-1.965-10.391-3.339-15.484c-1.983-0.469-3.968-0.916-5.963-1.249c-0.448,3.739-0.916,7.487-1.479,11.219
		c-4.265-2.414-7.137-6.507-10.725-9.731c9.514-10.724,18.032-22.484,23.756-35.68c6.287-14.482,10.58-30.129,10.399-46.004
		c2.242-0.372,4.512-0.696,6.792-0.658c9.054,0.105,18.108,0.076,27.162,0.028c0.104,17.516-3.912,34.842-9.826,51.26
		C482.433,337.887,470.517,356.547,455.541,372.279z M517.217,355.984c-8.796,16.447-19.911,31.685-32.971,45.012
		c-7.957-7.898-15.894-15.798-23.747-23.783c26.122-26.837,42.693-62.795,45.994-100.116c0.201-3.598,0.411-7.205,0.85-10.792
		c11.19,0.058,22.392-0.057,33.591,0.039C539.981,297.502,532.12,328.547,517.217,355.984z"/>
	<path fill="#0098CB" d="M353.249,365.468c10.962,4.368,20.674,13.537,23.622,25.244c1.393,4.96,1.221,10.169,0.926,15.264
		c-3.359-12.354-13.347-21.686-24.634-27.057C353.125,374.436,353.181,369.951,353.249,365.468z"/>
	<path fill="#0098CB" d="M1426.258,401.996c-0.229-12.43,0.943-25.081-2.1-37.273c-1.908-7.25-5.705-14.587-12.363-18.488
		c-8.311-5.219-18.441-6.115-28.021-5.858c-10.895-0.095-21.502,3.196-31.195,7.947c0.152,7.127,0.477,14.254,1.299,21.339
		c8.242-5.057,17.133-9.912,27.066-10.15c5.561-0.506,11.475,0.992,15.617,4.885c4.932,5.066,6.076,12.651,5.57,19.435
		c-4.959,1.192-10.303,0.151-15.396,0.667c-11.115,0.975-22.852,2.471-32.17,9.121c-7.193,4.874-11.66,13.213-12.375,21.809
		c-1.068,6.852-0.525,14.082,2.205,20.502c3.404,8.264,10.779,14.741,19.365,17.184c6.926,2.205,14.52,1.688,21.398-0.439
		c7.154-2.842,13.881-7.956,17.201-15.044c1.193,5.047,0.631,10.322,2.09,15.331c7.65-0.144,15.303-0.114,22.953,0.038
		C1425.523,436.055,1426.479,419.006,1426.258,401.996z M1399.631,423.34c-1.869,5.905-6.658,11.21-12.936,12.346
		c-5.344,0.792-11.555,0.764-15.627-3.329c-4.676-3.902-5.764-10.352-5.059-16.104c0.115-5.294,3.637-9.884,7.947-12.659
		c4.885-2.95,10.656-3.79,16.229-4.495c3.939-0.268,8.033-0.917,11.936-0.066C1402.561,407.178,1402.121,415.526,1399.631,423.34z"
		/>
	<path fill="#0098CB" d="M163.634,399.26c14.835,13.881,29.747,28.334,39.478,46.413c5.925,10.838,8.577,23.106,14.396,33.992
		c1.603,3.005,3.482,5.867,5.275,8.768c-12.154-3.663-24.786-0.678-37.178-1.098c-17.459,0.411-35.48-1.555-51.317-9.378
		c-12.136-5.752-22.467-14.788-30.758-25.271c-4.713-5.715-8.243-12.26-12.107-18.537c0.086-0.038,0.258-0.104,0.344-0.134
		c6.125,5.915,13.213,10.942,21.189,14.043c13.795,5.506,28.602,7.604,43.074,10.553c14.416,2.519,28.602,6.679,41.739,13.175
		c-4.255-2.929-7.098-7.317-10.551-11.057c-6.688-8.291-12.002-17.812-14.893-28.098c-2.166-7.202-2.767-14.749-4.589-22.027
		C166.753,406.682,165.084,403.009,163.634,399.26z"/>
	<path fill="#0098CB" d="M503.966,412.253c4.465-4.379,9.141-8.538,13.558-12.975c-5.323,11.065-5.62,23.525-9.217,35.107
		c-4.264,14.597-13.899,26.817-24.309,37.589c14.921-8.604,32.18-11.619,48.875-14.863c14.205-2.854,28.869-5.199,41.806-12.078
		c5.172-2.604,9.475-6.534,14.092-9.959c-5.849,12.363-14.788,23.115-25.054,32.084c-16.447,13.881-38.209,19.996-59.456,20.158
		c-8.271-0.038-16.562,0.19-24.813-0.507c-7.012-0.668-14.129-0.181-20.96,1.564c2.995-4.856,6.058-9.712,8.232-15.007
		c3.264-7.775,5.629-15.903,9.303-23.518C482.749,435.617,492.986,423.396,503.966,412.253z"/>
	<path fill="#0098CB" d="M1076.203,433.414c-0.027-18.213,0.096-36.426-0.066-54.628c-0.562-8.815-1.803-18.155-7.029-25.55
		c-4.361-6.467-11.773-10.264-19.291-11.695c-15.914-2.986-32.811-0.766-47.188,6.791c-0.096,7.29,0.791,14.531,1.201,21.8
		c8.566-6.411,19.023-10.817,29.861-10.655c5.342,0.008,10.789,2.213,14.262,6.354c3.932,5.257,4.58,12.105,4.305,18.46
		c-10.895,0-21.924,0.153-32.57,2.748c-8.863,2.079-17.707,6.603-22.697,14.501c-5.199,7.852-5.705,17.669-4.73,26.761
		c1.41,9.798,7.754,18.871,16.828,23.002c6.641,3.53,14.424,3.388,21.693,2.585c8.76-1.678,16.314-7.574,21.123-14.948
		c0.287-0.077,0.859-0.23,1.135-0.307c0.059,4.78,0.221,9.6,1.385,14.263c7.631-0.182,15.283,0.334,22.906-0.143
		C1077.254,446.284,1075.898,439.892,1076.203,433.414z M1048.842,425.447c-2.613,6.373-9.129,10.933-16.104,10.581
		c-5.543,0.647-11.209-1.929-14.271-6.594c-2.9-4.761-3.311-10.742-1.957-16.064c1.375-5.82,6.488-10.056,11.992-11.878
		c7.605-2.596,15.779-2.824,23.746-2.835C1052.477,407.645,1052.344,417.022,1048.842,425.447z"/>
	<path fill="#0098CB" d="M230.378,491.619c20.549-5.209,41.729-8.473,62.966-8.195c12.383-0.076,24.7,2.101,36.606,5.419
		c4.542,1.25,9.187,3.739,13.996,2.252c4.704-1.451,9.396-2.947,14.206-4.055c23.517-5.725,48.083-4.046,71.724,0.019
		c23.975,4.112,47.005,13.271,71.458,14.625c12.03,0.83,24.155-1.229,35.194-6.104c-7.729,7.519-17.221,13.031-27.075,17.277
		c-13.691,5.819-28.707,7.394-43.438,7.604c-10.817-0.688-21.732-1.03-32.342-3.481c-25.825-5.22-50.314-18.052-77.162-17.326
		c2.833,1.078,5.543,2.452,8.139,4.046c7.536,4.599,15.017,9.378,21.789,15.083c7.441,6.124,14.816,12.498,20.666,20.207
		c-4.514,0.171-8.673,2.433-13.176,2.271c-1.459-0.889-2.891-1.87-3.739-3.387c-10.724-17.278-27.849-30.816-47.654-35.968
		c-3.044-0.851-6.011,0.592-8.854,1.487c-16.257,5.371-30.186,16.581-40.05,30.443c-1.488,2.079-2.643,4.398-4.312,6.354
		c-5.085,0.382-10.208-0.314-15.198-1.27c13.595-16.428,31.092-29.489,49.973-39.277c-18.833-0.544-36.759,6.059-54.523,11.41
		c-15.751,5.019-32.084,8.834-48.694,8.979c-4.779,0.468-9.578,0.516-14.348-0.029c-22.611-0.571-45.354-8.805-61.945-24.403
		c6.573,2.519,13.271,4.962,20.35,5.609C187.199,503.697,209.046,497.057,230.378,491.619z"/>
</g>
</svg>
